# xmcd
# 
# Track frame offsets:
#     150
#     14499
#     24237
#     35530
#     48561
#     62183
#     76337
#     88825
#     100101
#     112760
#     126717
#     139202
#     153229
#     166598
#     180186
#     189191
#     203753
#     215677
#     228480
#     241578
# 
# Disc length: 3394
# 
# Revision: 1
# Processed by: cddbd v1.5.2PL0 Copyright (c) Steve Scherf et al.
# Submitted via: fre:ac v1.0.17
# 
DISCID=fe0d4014
DTITLE=Various Artist - The Blues - The Absolutely Essential 3 CD Collection - CD2
DYEAR=2011
DGENRE=Blues
TTITLE0=St. Louis Jimmy - Goin' Down Slow
TTITLE1=Leadbelly - Good Morning Blues
TTITLE2=Tampa Red - It Hurts Me Too
TTITLE3=Arthur Crudup - That's Alright Mama
TTITLE4=T-Bone Walker - Call It Stormy Monday (But Tuesday Is Just As Bad)
TTITLE5=John Lee Hooker - Boogie Chillen
TTITLE6=Lightnin' Hopkins - Automobile Blues
TTITLE7=Lowell Fulsom - Everyday I Have The Blues
TTITLE8=Jimmy Rogers - That's All Right
TTITLE9=Muddy Waters - Rollin' Stone
TTITLE10=Elmore James - Dust My Broom (I Believe My Time Ain't Long)
TTITLE11=John Lee Hooker - I'm In The Mood
TTITLE12=B. B. King - Three O'Clock Blues
TTITLE13=Guitar Slim - The Things That I Used To Do
TTITLE14=Ruth Brown - Mama, He Treats Your Daughter Mean
TTITLE15=Lowell Fulson - Reconsider Baby
TTITLE16=Johnny Guitar Watson - Space Guitar
TTITLE17=Muddy Waters - I'm Your Hoochie Coochie Man
TTITLE18=B. B. King - When My Heart Beats Like A Hammer
TTITLE19=Little Walter - Last Night
EXTD=
EXTT0=
EXTT1=
EXTT2=
EXTT3=
EXTT4=
EXTT5=
EXTT6=
EXTT7=
EXTT8=
EXTT9=
EXTT10=
EXTT11=
EXTT12=
EXTT13=
EXTT14=
EXTT15=
EXTT16=
EXTT17=
EXTT18=
EXTT19=
PLAYORDER=
